<?xml version="1.0" standalone="no"?>
<svg xmlns:xlink="http://www.w3.org/1999/xlink" id="wave" style="transform:rotate(180deg); transition: 0.3s" viewBox="0 0 1440 100" version="1.1" xmlns="http://www.w3.org/2000/svg"><defs><linearGradient id="sw-gradient-0" x1="0" x2="0" y1="1" y2="0"><stop stop-color="rgba(255, 249, 234, 1)" offset="0%"/><stop stop-color="rgba(255, 249, 234, 1)" offset="100%"/></linearGradient></defs><path style="transform:translate(0, 0px); opacity:1" fill="url(#sw-gradient-0)" d="M0,80L34.3,71.7C68.6,63,137,47,206,41.7C274.3,37,343,43,411,46.7C480,50,549,50,617,46.7C685.7,43,754,37,823,40C891.4,43,960,57,1029,65C1097.1,73,1166,77,1234,68.3C1302.9,60,1371,40,1440,33.3C1508.6,27,1577,33,1646,40C1714.3,47,1783,53,1851,46.7C1920,40,1989,20,2057,16.7C2125.7,13,2194,27,2263,35C2331.4,43,2400,47,2469,45C2537.1,43,2606,37,2674,35C2742.9,33,2811,37,2880,40C2948.6,43,3017,47,3086,50C3154.3,53,3223,57,3291,55C3360,53,3429,47,3497,40C3565.7,33,3634,27,3703,25C3771.4,23,3840,27,3909,28.3C3977.1,30,4046,30,4114,25C4182.9,20,4251,10,4320,16.7C4388.6,23,4457,47,4526,50C4594.3,53,4663,37,4731,38.3C4800,40,4869,60,4903,70L4937.1,80L4937.1,100L4902.9,100C4868.6,100,4800,100,4731,100C4662.9,100,4594,100,4526,100C4457.1,100,4389,100,4320,100C4251.4,100,4183,100,4114,100C4045.7,100,3977,100,3909,100C3840,100,3771,100,3703,100C3634.3,100,3566,100,3497,100C3428.6,100,3360,100,3291,100C3222.9,100,3154,100,3086,100C3017.1,100,2949,100,2880,100C2811.4,100,2743,100,2674,100C2605.7,100,2537,100,2469,100C2400,100,2331,100,2263,100C2194.3,100,2126,100,2057,100C1988.6,100,1920,100,1851,100C1782.9,100,1714,100,1646,100C1577.1,100,1509,100,1440,100C1371.4,100,1303,100,1234,100C1165.7,100,1097,100,1029,100C960,100,891,100,823,100C754.3,100,686,100,617,100C548.6,100,480,100,411,100C342.9,100,274,100,206,100C137.1,100,69,100,34,100L0,100Z"/></svg>